# xmcd CD database file
#
# Track frame offsets:
#	182
#	14522
#	30285
#	46695
#	67572
#	81215
#	97492
#	113042
#	127480
#	140327
#	158612
#	173700
#	184597
#	198542
#	211752
#
# Disc length: 3056 seconds
#
# Revision: 1
# Processed by: cddbd v1.5.2PL0 Copyright (c) Steve Scherf et al.
# Submitted via: CDex 1.70beta2
#
DISCID=c30bee0f
DTITLE=Canzoni Italiane - Roberto Murolo canta Napoli
DYEAR=1900
DGENRE=Country
TTITLE0=Lacreme napulitane
TTITLE1='Na sera 'e maggio
TTITLE2=Core 'ngrato
TTITLE3=Zampugnaro 'nnamurato
TTITLE4=Maruzzella
TTITLE5=Anema e core
TTITLE6=Munasterio 'e Santa Chiara
TTITLE7=Mandulinata a Napule
TTITLE8=Serenatella a 'na cumpagna 'e scola
TTITLE9='O paese d' 'o sole
TTITLE10=Desiderio 'e sole
TTITLE11='Na voce, 'na chitarra e 'o ppoco 'e luna
TTITLE12=Passione
TTITLE13=Vurria
TTITLE14=Scetate
EXTD=
EXTT0=
EXTT1=
EXTT2=
EXTT3=
EXTT4=
EXTT5=
EXTT6=
EXTT7=
EXTT8=
EXTT9=
EXTT10=
EXTT11=
EXTT12=
EXTT13=
EXTT14=
PLAYORDER=
